<?xml version="1.0" encoding="utf-8"?>
<!-- Generator: Adobe Illustrator 24.2.0, SVG Export Plug-In . SVG Version: 6.00 Build 0)  -->
<svg version="1.1" id="Capa_1" xmlns="http://www.w3.org/2000/svg" xmlns:xlink="http://www.w3.org/1999/xlink" x="0px" y="0px"
	 viewBox="0 0 701.2 199.6" style="enable-background:new 0 0 701.2 199.6;" xml:space="preserve">
<style type="text/css">
	.st0{fill:#A0C20F;}
	.st1{fill:#D8D8D8;}
	.st2{fill:#FFFFFF;}
	.st3{fill:#020101;}
</style>
<path class="st0" d="M163.5,27.3c0-12.8-10.4-23.2-23.2-23.2H28.4C15.6,4.1,5.2,14.5,5.2,27.3c0,0,0,0,0,0v34.9L58,33.5
	c3.4-2.4,7.9-2.4,11.3,0L113.7,64V52.8c0,0,0.1-3.2,3.2-3.2h12.7c0,0,2.6,0,2.9,3.2V77l31,21.3L163.5,27.3z"/>
<path class="st1" d="M163.5,122.5l-96-48.9c0,0-3.1-2.1-7.9-0.4L5.2,86.8v85.6c0,12.8,10.4,23.2,23.2,23.2h111.8
	c12.8,0,23.2-10.4,23.2-23.2V122.5z"/>
<path class="st2" d="M5.2,86.8V62.2L58,33.5c3.4-2.4,7.9-2.4,11.3,0L113.7,64V52.8c0,0,0.1-3.2,3.2-3.2h12.7c0,0,2.6,0,2.9,3.2V77
	l31,21.3v24.2l-96-48.9c0,0-3.1-2.1-7.9-0.4L5.2,86.8z"/>
<path class="st3" d="M99.6,143.3H84.3v-19.6H105c2,0,3.7-1.6,3.7-3.7c0,0,0,0,0,0l0,0c0-2-1.7-3.7-3.7-3.7c0,0,0,0,0,0H81.7
	c-2.4,0-4.4,1.9-4.4,4.3v22.8H66.9V91.4c0-1.9-1.6-3.4-3.5-3.4l0,0c-1.9,0-3.4,1.5-3.4,3.4v54.5c0,2.4,1.9,4.4,4.3,4.4c0,0,0,0,0,0
	h13v23.2c0,2.4,2,4.4,4.4,4.4h23.4c2,0,3.7-1.6,3.7-3.7l0,0c0-2-1.6-3.7-3.7-3.7c0,0,0,0,0,0H84.3v-20.2h15.3
	c-0.9-1-1.5-2.3-1.4-3.6C98.2,145.4,98.7,144.2,99.6,143.3z"/>
<path class="st3" d="M108.7,146.8c0,2-1.6,3.6-3.6,3.6c-2,0-3.6-1.6-3.6-3.6c0-2,1.6-3.6,3.6-3.6h0
	C107.1,143.2,108.7,144.8,108.7,146.8z"/>
<path class="st2" d="M202.7,103.1v43h21.4v8.4h-26.3c-1.2,0-2.3-0.5-3.2-1.3c-0.7-0.6-1.1-1.5-1.1-2.5v-47.7H202.7z"/>
<path class="st2" d="M263.4,154.5l-3.6-11.5h-17.1l-3.8,11.5h-9.7l17.1-48.1c0.3-0.9,0.9-1.8,1.8-2.3c2-1.3,4.6-1.3,6.6,0
	c0.9,0.5,1.5,1.4,1.8,2.3l16.7,48.1L263.4,154.5z M251.4,115.8l-6.2,19.4h12.2L251.4,115.8L251.4,115.8z"/>
<path class="st2" d="M545.1,154.5l-3.6-11.5h-17.1l-3.8,11.5h-9.7l17.1-48.2c0.3-0.9,0.9-1.8,1.8-2.3c2-1.3,4.6-1.3,6.6,0
	c0.9,0.5,1.5,1.4,1.8,2.3l16.7,48.1H545.1z M533.1,115.8l-6.2,19.4h12.2L533.1,115.8L533.1,115.8z"/>
<path class="st2" d="M686.2,154.5l-3.6-11.5h-17.1l-3.8,11.5h-9.7l17.1-48.2c0.3-0.9,0.9-1.8,1.8-2.3c2-1.3,4.6-1.3,6.6,0
	c0.9,0.5,1.5,1.4,1.8,2.3l16.8,48.1H686.2z M674.1,115.8l-6.2,19.4h12.2L674.1,115.8L674.1,115.8z"/>
<path class="st2" d="M335.3,154.5h-27.2c-1.3,0.1-2.5-0.4-3.5-1.2c-0.8-0.6-1.3-1.6-1.3-2.6v-43.9c0-1,0.5-2,1.3-2.6
	c1-0.8,2.2-1.2,3.5-1.2h27.2v8.5h-22.6v12.6h16.7v8.5h-16.7V146h22.6L335.3,154.5z"/>
<path class="st2" d="M459.2,154.5H432c-1.3,0.1-2.5-0.4-3.5-1.2c-0.8-0.6-1.3-1.6-1.3-2.6v-43.9c0-1,0.5-2,1.3-2.6
	c1-0.8,2.2-1.2,3.5-1.2h27.2v8.5h-22.6v12.6h16.7v8.5h-16.7V146h22.6V154.5z"/>
<path class="st2" d="M376.6,111.2l-5.4,6.3l-2.4-2.1l-1.8-1.5c-0.9-0.7-1.9-1.3-2.9-1.8c-1.6-0.7-3.4-1.1-5.3-1
	c-1.7-0.1-3.3,0.5-4.6,1.5c-1.3,1.1-1.9,2.8-1.8,4.4c-0.1,1.5,0.5,3,1.7,4c1.3,1.1,2.7,2,4.2,2.7c1.7,0.8,3.5,1.6,5.5,2.3
	c2,0.8,3.8,1.8,5.5,2.9c1.7,1.2,3.1,2.7,4.2,4.4c1.2,2.1,1.8,4.5,1.7,6.9c0,4.4-1.4,7.9-4.3,10.4s-6.9,3.8-11.9,3.8
	c-1,0-1.9-0.1-2.9-0.3c-1.2-0.2-2.4-0.5-3.6-0.8c-1.3-0.4-2.5-0.8-3.7-1.3c-1.2-0.5-2.3-1.1-3.3-1.8c-1.9-1.3-3.6-2.9-5.1-4.7
	l5.1-6.4c2.5,2.6,5.4,4.8,8.6,6.4c1.6,0.7,3.4,1,5.2,1c1.8,0.1,3.5-0.4,4.9-1.4c1.3-1.1,1.9-2.7,1.8-4.4c0-1.5-0.6-3-1.7-4.1
	c-1.3-1.2-2.7-2.1-4.3-2.9c-1.7-0.8-3.6-1.6-5.5-2.4c-1.9-0.8-3.8-1.8-5.5-2.9c-1.7-1.2-3.2-2.7-4.3-4.4c-1.2-2-1.8-4.4-1.7-6.7
	c0-2.1,0.3-4.1,1.1-6c0.7-1.7,1.8-3.3,3.1-4.6c1.4-1.3,3.1-2.4,5-3c2.2-0.7,4.5-1.1,6.8-1.1c2.3,0,4.6,0.3,6.9,1
	c1.8,0.6,3.4,1.4,4.9,2.4c1.2,0.9,2.3,1.8,3.4,2.8L376.6,111.2z"/>
<path class="st2" d="M384.6,154.5v-47.7c0-1,0.5-2,1.3-2.6c1-0.8,2.2-1.2,3.5-1.2h10.4c2.9-0.1,5.9,0.4,8.7,1.3
	c2.2,0.7,4.3,1.9,6,3.6c1.6,1.5,2.8,3.3,3.5,5.3c0.8,2.1,1.1,4.3,1.1,6.5v0.9c0,2-0.3,3.9-1,5.8c-0.7,1.9-1.9,3.6-3.3,4.9
	c-1.7,1.6-3.8,2.7-6,3.5c-2.9,0.9-5.9,1.4-9,1.3h-5.9v18.4H384.6z M393.9,111v17.4h5.9c1.5,0,3.1-0.2,4.5-0.6
	c1.1-0.4,2.2-0.9,3.1-1.7c0.8-0.6,1.4-1.5,1.8-2.4c0.4-0.9,0.6-1.8,0.6-2.8v-1.8c0-2.2-0.8-4.3-2.4-5.8c-1.6-1.6-4.2-2.3-7.7-2.3
	L393.9,111z"/>
<path class="st2" d="M495.7,154.5l-9.6-20.5c-0.5,0.1-0.9,0.1-1.4,0.1h-8.2v20.4h-9.3v-47.7c0-1,0.5-2,1.3-2.6
	c1-0.8,2.2-1.2,3.5-1.2h11.2c3.1-0.1,6.1,0.3,9.1,1.1c2.2,0.6,4.3,1.7,6,3.1c1.5,1.3,2.6,3,3.3,4.9c0.7,2,1,4.2,1,6.3v0.6
	c0.1,2.5-0.6,4.9-1.9,7c-1.2,1.9-3.4,3.5-6.6,4.7l11.6,23.8L495.7,154.5z M476.5,111v15.4h6.7c3.6,0,6.2-0.6,7.8-1.8
	c1.5-1.1,2.4-2.8,2.4-4.7v-1.5c0.1-2-0.8-4-2.3-5.4c-1.6-1.3-4.1-2-7.8-2H476.5z"/>
<path class="st2" d="M602.2,150.9c-0.2,3.9-4.5,3.6-4.5,3.6c-1.7,0.1-3.3-0.7-4.4-2.1l-0.2-0.4l-21-30.5v33h-9.2v-47.7
	c0-4.1,4.3-3.7,4.3-3.7c3-0.2,4.8,3,4.8,3l21.1,30.8v-33.8h9.1L602.2,150.9L602.2,150.9z"/>
<path class="st2" d="M642.3,103.1c2.2,0.1,3.9,2,3.8,4.2c0,0.4-0.1,0.9-0.3,1.3c-0.2,0.5-0.4,0.9-0.7,1.4l-22.9,36.2h24.7v7.9h-32.7
	c-1,0-2-0.3-2.8-0.9c-0.8-0.7-1.3-1.8-1.2-2.9c0-1.1,0.4-2.2,1.1-3l22.9-36.2h-23.4v-7.9C610.9,103.1,642.3,103.1,642.3,103.1z"/>
<path class="st2" d="M213,48.7c-7.4-0.2-13.6,5.6-13.8,13s5.6,13.6,13,13.8c0.2,0,0.5,0,0.7,0c3.7,0,7.3-1.5,10-4l2.3,2.5
	c-3.4,3.2-7.9,5-12.5,5.1c-9.5,0.2-17.3-7.3-17.4-16.8c0-0.1,0-0.2,0-0.3c0-9.4,7.8-16.9,17.6-16.9c4.6,0,9,1.8,12.3,4.9l-2.3,2.8
	C220.3,50.2,216.8,48.7,213,48.7z"/>
<path class="st2" d="M263.6,62.1c0,9.5-7.8,17-17.6,17s-17.7-7.5-17.7-17s7.8-17,17.7-17S263.6,52.6,263.6,62.1z M232.2,62.1
	c0,7.6,6.2,13.7,13.7,13.7c7.6,0,13.7-6.1,13.7-13.7c0-7.6-6.2-13.7-13.7-13.7C238.3,48.4,232.2,54.6,232.2,62.1z"/>
<path class="st2" d="M274.6,45.3l20.2,27.4V45.3h3.8V79h-3.9l-20.2-27.4V79h-3.9V45.3H274.6z"/>
<path class="st2" d="M318.7,48.9c-4.3,0-7.2,1.7-7.2,4.6c0,8.8,19,4.2,18.9,16.4c0,5.6-5,9.2-12.2,9.2c-4.8,0-9.4-1.9-12.9-5.1
	l1.7-3.3c3,2.9,7,4.6,11.2,4.7c4.9,0,7.9-2,7.9-5.3c0-9-18.9-4.2-18.9-16.3c0-5.3,4.7-8.7,11.7-8.7c3.8,0,7.5,1.1,10.7,3.1l-1.6,3.4
	C325.2,49.9,322,48.9,318.7,48.9z"/>
<path class="st2" d="M359.6,45.3v3.6h-11V79h-3.9V48.8h-11v-3.6H359.6z"/>
<path class="st2" d="M387.3,79l-7.1-10.8c-0.7,0.1-1.4,0.1-2.2,0.1h-9V79h-3.9V45.3H378c8.4,0,13.3,4.1,13.3,11.3
	c0,5.5-2.8,9.3-7.6,10.9l8,11.5H387.3z M378,64.7c6.1,0,9.6-2.7,9.6-8s-3.5-7.8-9.6-7.8h-9v15.8H378z"/>
<path class="st2" d="M413.5,75.6c6.4,0,10.3-3.8,10.3-10.5V45.3h3.9v19.8c0,8.8-5.3,14-14.1,14s-14.2-5.2-14.2-14V45.3h3.9v19.8
	C403.1,71.8,407.1,75.6,413.5,75.6z"/>
<path class="st2" d="M451.5,48.7c-7.4-0.2-13.6,5.6-13.8,13s5.6,13.6,13,13.8c0.2,0,0.5,0,0.7,0c3.7,0,7.3-1.5,10-4l2.3,2.5
	c-3.4,3.2-7.9,5-12.5,5.1c-9.5,0.2-17.3-7.3-17.4-16.8c0-0.1,0-0.2,0-0.3c0-9.4,7.8-16.9,17.6-16.9c4.6,0,9,1.8,12.3,4.9l-2.3,2.8
	C458.8,50.2,455.2,48.7,451.5,48.7z"/>
<path class="st2" d="M492,45.3v3.6h-11V79h-3.9V48.8h-11v-3.6H492z"/>
<path class="st2" d="M527.6,62.1c0,9.5-7.8,17-17.6,17s-17.7-7.5-17.7-17s7.8-17,17.7-17S527.6,52.6,527.6,62.1z M496.2,62.1
	c0,7.6,6.2,13.7,13.7,13.7c7.6,0,13.7-6.1,13.7-13.7c0-7.6-6.2-13.7-13.7-13.7C502.3,48.4,496.2,54.6,496.2,62.1z"/>
<path class="st2" d="M556.7,79l-7.1-10.8c-0.7,0.1-1.4,0.1-2.2,0.1h-9V79h-3.8V45.3h12.8c8.4,0,13.3,4.1,13.3,11.3
	c0,5.5-2.7,9.3-7.6,10.9l8,11.5H556.7z M547.4,64.7c6.1,0,9.6-2.7,9.6-8s-3.5-7.8-9.6-7.8h-9v15.8H547.4z"/>
<path class="st2" d="M590.7,70.4h-18.3l-3.8,8.6h-4.1l15.1-33.7h4L598.7,79h-4.2L590.7,70.4z M589.2,66.8l-7.7-17.3L574,66.8H589.2z
	"/>
</svg>
